<svg width="22" height="24" viewBox="0 0 22 24" fill="none" xmlns="http://www.w3.org/2000/svg">
<g clip-path="url(#clip0_54_119)">
<path d="M13.6347 2.06085L11.5243 1.49536L9.74584 8.13269L8.14021 2.14047L6.02977 2.70595L7.76455 9.18011L3.44362 4.8592L1.89869 6.40414L6.63821 11.1437L0.735895 9.56215L0.17041 11.6725L6.61942 13.4006C6.54559 13.0821 6.50653 12.7503 6.50653 12.4093C6.50653 9.99598 8.46292 8.03959 10.8763 8.03959C13.2896 8.03959 15.246 9.99598 15.246 12.4093C15.246 12.7481 15.2074 13.0779 15.1345 13.3944L20.9955 14.9649L21.5609 12.8545L15.0863 11.1196L20.989 9.53796L20.4235 7.42756L13.9491 9.16235L18.27 4.84146L16.725 3.29653L12.0513 7.97032L13.6347 2.06085Z" fill="#FF4405"/>
<path d="M15.1283 13.419C14.9474 14.184 14.5654 14.8712 14.0413 15.4218L18.2873 19.6678L19.8322 18.1229L15.1283 13.419Z" fill="#FF4405"/>
<path d="M13.9984 15.4662C13.4679 16.008 12.7976 16.4123 12.0458 16.6206L13.5909 22.3868L15.7012 21.8213L13.9984 15.4662Z" fill="#FF4405"/>
<path d="M11.967 16.6417C11.6182 16.7314 11.2526 16.779 10.8759 16.779C10.4723 16.779 10.0814 16.7243 9.71038 16.6219L8.16394 22.3933L10.2743 22.9587L11.967 16.6417Z" fill="#FF4405"/>
<path d="M9.63576 16.6006C8.89549 16.3819 8.23704 15.9724 7.71741 15.4291L3.46096 19.6855L5.00589 21.2305L9.63576 16.6006Z" fill="#FF4405"/>
<path d="M7.68234 15.3914C7.17162 14.8447 6.7996 14.1666 6.62253 13.4135L0.742432 14.9891L1.30791 17.0994L7.68234 15.3914Z" fill="#FF4405"/>
</g>
<defs>
<clipPath id="clip0_54_119">
<rect width="22" height="22" fill="white" transform="translate(0 1)"/>
</clipPath>
</defs>
</svg>
